<?xml version="1.0" encoding="iso-8859-1"?>
<!-- Generator: Adobe Illustrator 16.0.0, SVG Export Plug-In . SVG Version: 6.00 Build 0)  -->
<!DOCTYPE svg PUBLIC "-//W3C//DTD SVG 1.1//EN" "http://www.w3.org/Graphics/SVG/1.1/DTD/svg11.dtd">
<svg xmlns="http://www.w3.org/2000/svg" xmlns:xlink="http://www.w3.org/1999/xlink" version="1.1" id="Capa_1" x="0px" y="0px" width="512px" height="512px" viewBox="0 0 47.704 47.704" style="enable-background:new 0 0 47.704 47.704;" xml:space="preserve">
<g>
	<g id="Facebook_Like">
		<g>
			<path d="M26.639,13.34c-0.092,0-0.185-0.013-0.277-0.039c-0.529-0.153-0.836-0.708-0.684-1.238     c0.309-1.063,0.745-4.545,0.889-5.797c0.062-0.55,0.562-0.948,1.106-0.88c0.55,0.062,0.943,0.558,0.88,1.106     C28.499,6.97,28.009,11.2,27.6,12.617C27.473,13.055,27.073,13.34,26.639,13.34z" fill="#D80027"/>
			<path d="M34.414,13.072c-0.042,0-0.085-0.003-0.128-0.008c-0.548-0.07-0.935-0.571-0.865-1.119     c0.004-0.026,0.331-2.626,0.162-4.897c-0.041-0.551,0.372-1.03,0.923-1.071c0.562-0.044,1.03,0.373,1.071,0.923     c0.185,2.478-0.157,5.187-0.173,5.3C35.34,12.704,34.91,13.072,34.414,13.072z" fill="#D80027"/>
			<path d="M34.579,8.13c-0.529,0-0.972-0.415-0.998-0.95c-0.054-1.071-0.226-2.58-1.091-3.317     c-0.481-0.411-1.164-0.562-2.075-0.459c-1.002,0.111-1.532,0.602-1.834,3.089c-0.065,0.549-0.56,0.938-1.113,0.873     c-0.549-0.067-0.938-0.565-0.872-1.113c0.19-1.572,0.545-4.497,3.6-4.837c1.471-0.164,2.681,0.146,3.593,0.925     c1.456,1.239,1.72,3.299,1.792,4.74c0.027,0.552-0.396,1.021-0.949,1.049C34.613,8.13,34.596,8.13,34.579,8.13z" fill="#D80027"/>
		</g>
		<g>
			<path style="stroke-width:2;stroke-linecap:round;stroke-linejoin:round;stroke-miterlimit:10;" d="     M43.384,25.663" stroke="#D80027" fill="#D80027"/>
			<path d="M43.384,19.99H33.008c-0.553,0-1-0.447-1-1c0-0.553,0.447-1,1-1h10.376c0.554,0,1,0.447,1,1     C44.384,19.543,43.938,19.99,43.384,19.99z" fill="#D80027"/>
			<path d="M43.384,26.641c-0.553,0-1-0.447-1-1s0.447-1,1-1c1.279,0,2.32-1.043,2.32-2.324c0-1.282-1.041-2.326-2.32-2.326     c-0.553,0-1-0.447-1-1c0-0.553,0.447-1,1-1c2.382,0,4.32,1.94,4.32,4.326C47.704,24.702,45.766,26.641,43.384,26.641z" fill="#D80027"/>
		</g>
		<g>
			<path style="stroke-width:2;stroke-linecap:round;stroke-linejoin:round;stroke-miterlimit:10;" d="M42.451,32.18     " stroke="#D80027" fill="#D80027"/>
			<path d="M42.451,33.159c-0.553,0-1-0.447-1-1c0-0.554,0.447-1,1-1c1.279,0,2.32-1.043,2.32-2.322c0-1.021-0.68-1.938-1.65-2.229     c-0.529-0.159-0.829-0.718-0.67-1.245c0.16-0.529,0.715-0.826,1.246-0.671c1.839,0.554,3.074,2.22,3.074,4.146     C46.771,31.22,44.833,33.159,42.451,33.159z" fill="#D80027"/>
		</g>
		<g>
			<path style="stroke-width:2;stroke-linecap:round;stroke-linejoin:round;stroke-miterlimit:10;" d="     M41.479,38.706" stroke="#D80027" fill="#D80027"/>
			<path d="M41.479,39.682c-0.554,0-1-0.447-1-1s0.446-1,1-1c1.278,0,2.319-1.042,2.319-2.322c0-1.029-0.687-1.947-1.67-2.232     c-0.53-0.153-0.836-0.707-0.683-1.238c0.152-0.53,0.705-0.833,1.238-0.684c1.834,0.531,3.113,2.24,3.113,4.154     C45.798,37.743,43.859,39.682,41.479,39.682z" fill="#D80027"/>
		</g>
		<g>
			<path d="M40.491,46.228c-0.554,0-1-0.446-1-1s0.446-1,1-1c1.28,0,2.321-1.042,2.321-2.321c0-1.025-0.654-1.918-1.629-2.222     c-0.527-0.164-0.822-0.726-0.658-1.252c0.162-0.526,0.723-0.819,1.252-0.658c1.814,0.563,3.035,2.226,3.035,4.132     C44.812,44.29,42.874,46.228,40.491,46.228z" fill="#D80027"/>
			<path d="M30.438,46.331c-2.453,0-4.86-0.021-6.581-0.08c-2.538-0.086-4.592-2.047-6.092-3.479     c-0.484-0.463-0.941-0.898-1.302-1.16c-0.446-0.326-0.545-0.951-0.22-1.398c0.326-0.445,0.95-0.543,1.397-0.219     c0.468,0.34,0.972,0.821,1.506,1.332c1.337,1.275,3.001,2.865,4.778,2.926c5.113,0.174,16.436-0.002,16.551-0.002     c0.508-0.014,1.006,0.433,1.016,0.983c0.009,0.552-0.432,1.007-0.984,1.017C40.432,46.25,35.348,46.331,30.438,46.331z" fill="#D80027"/>
		</g>
		<path d="M33.021,19.99c-0.186,0-0.371-0.051-0.537-0.157c-0.467-0.297-0.603-0.916-0.305-1.381l0,0    c-0.002,0,0.782-1.446,1.228-6.489c0.049-0.55,0.528-0.956,1.084-0.908c0.55,0.049,0.957,0.534,0.907,1.084    c-0.484,5.507-1.362,7.122-1.533,7.39C33.674,19.827,33.352,19.99,33.021,19.99z" fill="#D80027"/>
		<path d="M16.826,27.25c-0.553,0-1-0.447-1-1c0-0.489,0.352-0.897,0.816-0.983c1.141-0.601,7.624-7.432,9.025-13.121    c0.133-0.536,0.679-0.866,1.21-0.731c0.536,0.132,0.864,0.674,0.73,1.21C26.09,18.791,18.698,27.25,16.826,27.25z" fill="#D80027"/>
		<path d="M13.848,46.312h-9.66C1.879,46.312,0,44.211,0,41.629V27.618c0-2.582,1.879-4.683,4.188-4.683h9.66    c2.308,0,4.186,2.101,4.186,4.683v14.012C18.033,44.211,16.155,46.312,13.848,46.312z M4.188,24.935    C2.981,24.935,2,26.139,2,27.618v14.012c0,1.479,0.981,2.684,2.188,2.684h9.66c1.205,0,2.186-1.204,2.186-2.684V27.618    c0-1.479-0.98-2.683-2.186-2.683H4.188z" fill="#D80027"/>
		<g>
			<g>
				<path style="stroke-width:1.5;stroke-linecap:round;stroke-linejoin:round;stroke-miterlimit:10;" d="      M6.629,37.353" stroke="#D80027" fill="#D80027"/>
				<path style="stroke-width:1.5;stroke-linecap:round;stroke-linejoin:round;stroke-miterlimit:10;" d="      M9.998,37.848" stroke="#D80027" fill="#D80027"/>
				<path d="M7.941,42.23c-0.263,0-0.517-0.138-0.654-0.382c-1.253-2.225-1.604-3.393-1.396-4.628      c0.191-1.134,1.386-2.236,2.785-2.037c0.645,0.095,1.216,0.435,1.606,0.96c0.39,0.523,0.552,1.168,0.457,1.812      c-0.06,0.41-0.437,0.687-0.852,0.633c-0.41-0.061-0.693-0.44-0.633-0.852c0.037-0.248-0.025-0.496-0.176-0.699      c-0.151-0.203-0.372-0.334-0.623-0.371c-0.489-0.078-1.015,0.379-1.087,0.804c-0.123,0.731,0.035,1.528,1.224,3.642      c0.203,0.361,0.075,0.818-0.285,1.021C8.192,42.2,8.065,42.23,7.941,42.23z" fill="#D80027"/>
			</g>
			<g>
				<path d="M8.336,42.569c-0.093,0-0.188-0.018-0.279-0.055c-0.499-0.198-0.704-0.531-0.872-0.855      c-0.19-0.367-0.047-0.82,0.321-1.011c0.369-0.19,0.82-0.046,1.011,0.321c0.061,0.117,0.085,0.15,0.092,0.158      c0.385,0.154,0.574,0.586,0.421,0.972C8.912,42.393,8.633,42.569,8.336,42.569z" fill="#D80027"/>
			</g>
			<g>
				<path style="stroke-width:1.5;stroke-linecap:round;stroke-linejoin:round;stroke-miterlimit:10;" d="      M12.711,39.896" stroke="#D80027" fill="#D80027"/>
				<path style="stroke-width:1.5;stroke-linecap:round;stroke-linejoin:round;stroke-miterlimit:10;" d="      M9.992,37.846" stroke="#D80027" fill="#D80027"/>
				<path d="M8.853,42.612c-0.33,0-0.633-0.22-0.724-0.554c-0.109-0.399,0.127-0.812,0.526-0.921      c2.338-0.639,3.018-1.086,3.453-1.688c0.249-0.348,0.21-1.031-0.193-1.334c-0.203-0.154-0.453-0.216-0.702-0.185      c-0.25,0.034-0.471,0.165-0.622,0.364c-0.25,0.332-0.72,0.397-1.05,0.147c-0.331-0.249-0.397-0.72-0.147-1.05      c0.393-0.521,0.965-0.857,1.611-0.947c0.648-0.089,1.291,0.075,1.812,0.471c1.132,0.851,1.177,2.479,0.507,3.408      c-0.744,1.03-1.782,1.578-4.274,2.26C8.984,42.602,8.917,42.612,8.853,42.612z" fill="#D80027"/>
			</g>
			<g>
				<path d="M8.635,42.636c-0.182,0-0.378-0.034-0.597-0.128c-0.381-0.164-0.557-0.604-0.394-0.985      c0.164-0.381,0.604-0.555,0.985-0.394c0.014,0.01,0.054,0,0.179-0.039c0.398-0.12,0.816,0.1,0.939,0.494      c0.122,0.396-0.099,0.815-0.494,0.938C9.062,42.583,8.859,42.636,8.635,42.636z" fill="#D80027"/>
			</g>
		</g>
	</g>
	<g>
	</g>
	<g>
	</g>
	<g>
	</g>
	<g>
	</g>
	<g>
	</g>
	<g>
	</g>
	<g>
	</g>
	<g>
	</g>
	<g>
	</g>
	<g>
	</g>
	<g>
	</g>
	<g>
	</g>
	<g>
	</g>
	<g>
	</g>
	<g>
	</g>
</g>
<g>
</g>
<g>
</g>
<g>
</g>
<g>
</g>
<g>
</g>
<g>
</g>
<g>
</g>
<g>
</g>
<g>
</g>
<g>
</g>
<g>
</g>
<g>
</g>
<g>
</g>
<g>
</g>
<g>
</g>
</svg>
